<svg version="1.0" xmlns="http://www.w3.org/2000/svg" preserveAspectRatio="xMidYMid meet" viewBox="30.38 27.08 400.12 183.83">

<g transform="translate(0.000000,255.000000) scale(0.100000,-0.100000)" fill="#ffffff" stroke="none">
<path d="M1586 2206 c-130 -55 -171 -77 -177 -94 -5 -13 -184 -309 -399 -658 l-391 -634 37 -186 c39 -196 50 -219 85 -173 55 73 1060 1791 1055 1804 -3 8 -13 15 -23 14 -10 0 -94 -33 -187 -73z m81 -85 c-729 -1236 -933 -1580 -937 -1581 -3 0 -18 61 -32 135 l-27 135 397 645 397 645 125 54 c69 30 126 55 127 55 1 1 -21 -39 -50 -88z"/>
<path d="M1847 2243 c-4 -3 -7 -14 -7 -24 0 -9 -93 -178 -207 -375 -198 -346 -233 -420 -204 -438 4 -3 230 -6 502 -6 470 -1 494 0 493 17 -1 25 -541 833 -557 833 -8 0 -17 -3 -20 -7z m272 -445 l231 -348 -440 0 c-242 0 -440 2 -440 4 0 16 405 705 410 699 4 -4 112 -164 239 -355z"/>
<path d="M720 1550 c-259 -413 -419 -677 -416 -686 3 -9 13 -14 22 -12 20 4 855 1327 851 1348 -9 56 -43 7 -457 -650z"/>
<path d="M3766 1242 c-2 -4 -32 -131 -66 -281 -65 -285 -66 -308 -18 -283 16 8 106 13 283 15 252 2 260 3 261 22 1 11 4 27 7 35 4 8 8 53 9 100 l3 85 -110 -4 c-113 -3 -132 -8 -122 -35 5 -13 24 -16 96 -16 l89 0 -1 -70 -2 -70 -248 0 c-232 0 -248 1 -243 18 3 9 23 98 45 197 23 99 43 190 46 202 5 23 6 23 258 25 244 3 252 4 252 23 0 19 -8 20 -245 23 -143 1 -248 6 -254 12 -12 12 -33 13 -40 2z"/>
<path d="M2921 1188 c-4 -13 -50 -146 -101 -296 -92 -270 -99 -305 -57 -289 8 3 50 112 98 256 46 138 87 251 90 251 9 0 234 -420 239 -449 4 -18 12 -26 25 -26 17 0 30 34 97 265 43 146 77 272 75 280 -1 8 -11 15 -22 15 -17 0 -28 -29 -85 -227 l-66 -228 -126 233 c-72 132 -133 233 -142 235 -9 2 -20 -6 -25 -20z"/>
<path d="M1634 950 c-117 -190 -192 -310 -219 -346 -24 -33 7 -35 340 -20 242 10 333 11 346 3 14 -9 22 -7 38 7 12 11 21 24 21 30 0 7 59 123 131 259 72 136 129 252 127 257 -2 6 -132 12 -329 15 l-327 6 -128 -211z m557 151 l155 -6 -113 -215 c-63 -118 -118 -219 -122 -223 -7 -7 -612 -40 -617 -34 -1 1 57 96 127 212 71 116 138 225 149 243 l19 32 123 -1 c68 -1 193 -4 279 -8z"/>
</g>
</svg>